<svg width="114" height="24" viewBox="0 0 114 24" fill="none" xmlns="http://www.w3.org/2000/svg">
<g clip-path="url(#clip0)">
<path d="M0.896 23H9.92V22.552C6.752 22.168 5.664 20.76 5.664 17.496V2.936H5.856L14.144 23H15.616L22.848 2.936H23.008V20.92C23.008 22.104 22.016 22.456 20.032 22.552V23H31.52V22.552C28.928 22.456 28.32 22.04 28.32 20.92V2.776C28.32 1.656 28.928 1.208 31.52 1.112V0.695999H22.816L17.152 16.504H16.992L10.656 0.695999H0.896V1.112C3.648 1.176 4.864 2.584 4.864 4.504V17.496C4.864 20.76 3.904 22.2 0.896 22.552V23Z" fill="white"/>
<path d="M32.896 23H41.92V22.552C38.752 22.168 37.664 20.76 37.664 17.496V2.936H37.856L46.144 23H47.616L54.848 2.936H55.008V20.92C55.008 22.104 54.016 22.456 52.032 22.552V23H63.52V22.552C60.928 22.456 60.32 22.04 60.32 20.92V2.776C60.32 1.656 60.928 1.208 63.52 1.112V0.695999H54.816L49.152 16.504H48.992L42.656 0.695999H32.896V1.112C35.648 1.176 36.864 2.584 36.864 4.504V17.496C36.864 20.76 35.904 22.2 32.896 22.552V23Z" fill="white"/>
<path d="M69.6 23H82.272V22.552C79.424 22.488 78.624 22.04 78.624 20.92V1.24H79.072C81.536 1.24 83.392 3.8 85.824 8.408L86.336 8.344L86.176 0.695999H65.696L65.504 8.344L66.016 8.408C68.448 3.8 70.304 1.24 72.768 1.24H73.248V20.92C73.248 22.04 72.416 22.488 69.6 22.552V23Z" fill="white"/>
<path d="M108 23.288H109.888V6.168C109.888 2.968 110.848 1.528 113.856 1.112V0.695999H104.576V1.112C107.808 1.464 109.088 2.968 109.088 6.168V16.088H109.056L97.024 0.695999H88.896V1.112C91.648 1.304 92.864 2.904 92.864 4.888V17.496C92.864 20.76 91.904 22.2 88.896 22.552V23H98.112V22.552C94.848 22.232 93.664 20.76 93.664 17.496V5.08H93.696L108 23.288Z" fill="white"/>
</g>
<defs>
<clipPath id="clip0">
<rect width="114" height="24" fill="white"/>
</clipPath>
</defs>
</svg>
